<svg width="28" height="32" viewBox="0 0 28 32" fill="none" xmlns="http://www.w3.org/2000/svg">
<path d="M14 16C17.912 16 21.0833 12.8287 21.0833 8.91671C21.0833 5.00469 17.912 1.83337 14 1.83337C10.088 1.83337 6.91667 5.00469 6.91667 8.91671C6.91667 12.8287 10.088 16 14 16Z" stroke="white" stroke-width="2"/>
<path d="M21.0833 18.8334H21.582C22.6177 18.8337 23.6176 19.2121 24.394 19.8977C25.1703 20.5832 25.6696 21.5287 25.798 22.5564L26.3519 26.982C26.4017 27.3807 26.3662 27.7855 26.2476 28.1694C26.1291 28.5533 25.9303 28.9076 25.6643 29.2088C25.3984 29.5099 25.0714 29.7511 24.7051 29.9163C24.3388 30.0814 23.9416 30.1668 23.5398 30.1667H4.46017C4.05838 30.1668 3.66116 30.0814 3.29489 29.9163C2.92861 29.7511 2.60165 29.5099 2.3357 29.2088C2.06976 28.9076 1.87091 28.5533 1.75236 28.1694C1.63381 27.7855 1.59827 27.3807 1.64809 26.982L2.20059 22.5564C2.32907 21.5282 2.82876 20.5824 3.60568 19.8968C4.38261 19.2111 5.38324 18.833 6.41942 18.8334H6.91667" stroke="white" stroke-width="2" stroke-linecap="round" stroke-linejoin="round"/>
</svg>
